<?xml version="1.0" encoding="UTF-8" standalone="no"?>
<!DOCTYPE svg PUBLIC "-//W3C//DTD SVG 1.1//EN"
 "http://www.w3.org/Graphics/SVG/1.1/DTD/svg11.dtd">
<!-- Generated by graphviz version 2.36.0 (20140111.2315)
 -->
<!-- Title: G Pages: 1 -->
<svg width="834pt" height="574pt"
 viewBox="0.00 0.00 834.31 574.00" xmlns="http://www.w3.org/2000/svg" xmlns:xlink="http://www.w3.org/1999/xlink">
<g id="graph0" class="graph" transform="scale(1 1) rotate(0) translate(4 570)">
<title>G</title>
<polygon fill="white" stroke="none" points="-4,4 -4,-570 830.313,-570 830.313,4 -4,4"/>
<!-- next_action_todotxt_Task -->
<g id="node1" class="node"><title>next_action_todotxt_Task</title>
<ellipse fill="#ce3b3b" stroke="black" cx="199.313" cy="-359" rx="49.1678" ry="26.7407"/>
<text text-anchor="middle" x="199.313" y="-366" font-family="Helvetica,sans-Serif" font-size="10.00" fill="#ffffff">next_action.</text>
<text text-anchor="middle" x="199.313" y="-356" font-family="Helvetica,sans-Serif" font-size="10.00" fill="#ffffff">todotxt.</text>
<text text-anchor="middle" x="199.313" y="-346" font-family="Helvetica,sans-Serif" font-size="10.00" fill="#ffffff">Task</text>
</g>
<!-- next_action_pick_action -->
<g id="node2" class="node"><title>next_action_pick_action</title>
<ellipse fill="#b03a3a" stroke="black" cx="84.3126" cy="-179" rx="49.1678" ry="19.6"/>
<text text-anchor="middle" x="84.3126" y="-181" font-family="Helvetica,sans-Serif" font-size="10.00" fill="#ffffff">next_action.</text>
<text text-anchor="middle" x="84.3126" y="-171" font-family="Helvetica,sans-Serif" font-size="10.00" fill="#ffffff">pick_action</text>
</g>
<!-- next_action_todotxt_Task&#45;&gt;next_action_pick_action -->
<g id="edge1" class="edge"><title>next_action_todotxt_Task&#45;&gt;next_action_pick_action</title>
<path fill="none" stroke="black" d="M203.451,-332.066C205.369,-314.259 206.113,-290.271 200.313,-270"/>
<path fill="none" stroke="black" d="M200.313,-268C194.862,-248.951 152.59,-220.234 120.635,-200.832"/>
<polygon fill="black" stroke="black" points="122.313,-197.757 111.935,-195.622 118.717,-203.763 122.313,-197.757"/>
</g>
<!-- next_action_output -->
<g id="node7" class="node"><title>next_action_output</title>
<ellipse fill="#a13535" stroke="black" cx="84.3126" cy="-96" rx="49.1678" ry="19.6"/>
<text text-anchor="middle" x="84.3126" y="-98" font-family="Helvetica,sans-Serif" font-size="10.00" fill="#ffffff">next_action.</text>
<text text-anchor="middle" x="84.3126" y="-88" font-family="Helvetica,sans-Serif" font-size="10.00" fill="#ffffff">output</text>
</g>
<!-- next_action_todotxt_Task&#45;&gt;next_action_output -->
<g id="edge9" class="edge"><title>next_action_todotxt_Task&#45;&gt;next_action_output</title>
<path fill="none" stroke="black" d="M278.313,-178C267.645,-168.458 270.943,-160.341 259.313,-152 224.065,-126.723 176.79,-112.775 140.261,-105.255"/>
<polygon fill="black" stroke="black" points="140.748,-101.784 130.262,-103.3 139.405,-108.654 140.748,-101.784"/>
<path fill="none" stroke="black" d="M223.706,-335.364C261.562,-297.7 325.436,-222.151 278.313,-180"/>
</g>
<!-- next_action_output_reference -->
<g id="node9" class="node"><title>next_action_output_reference</title>
<ellipse fill="#b83d3d" stroke="black" cx="201.313" cy="-179" rx="49.1678" ry="26.7407"/>
<text text-anchor="middle" x="201.313" y="-186" font-family="Helvetica,sans-Serif" font-size="10.00" fill="#ffffff">next_action.</text>
<text text-anchor="middle" x="201.313" y="-176" font-family="Helvetica,sans-Serif" font-size="10.00" fill="#ffffff">output.</text>
<text text-anchor="middle" x="201.313" y="-166" font-family="Helvetica,sans-Serif" font-size="10.00" fill="#ffffff">reference</text>
</g>
<!-- next_action_todotxt_Task&#45;&gt;next_action_output_reference -->
<g id="edge17" class="edge"><title>next_action_todotxt_Task&#45;&gt;next_action_output_reference</title>
<path fill="none" stroke="black" d="M200.313,-268C195.554,-251.371 195.2,-232.242 196.285,-216.074"/>
<polygon fill="black" stroke="black" points="199.787,-216.201 197.174,-205.934 192.814,-215.59 199.787,-216.201"/>
</g>
<!-- next_action_cli -->
<g id="node5" class="node"><title>next_action_cli</title>
<ellipse fill="#8f3d3d" stroke="black" cx="200.313" cy="-20" rx="49.1678" ry="19.6"/>
<text text-anchor="middle" x="200.313" y="-22" font-family="Helvetica,sans-Serif" font-size="10.00" fill="#ffffff">next_action.</text>
<text text-anchor="middle" x="200.313" y="-12" font-family="Helvetica,sans-Serif" font-size="10.00" fill="#ffffff">cli</text>
</g>
<!-- next_action_pick_action&#45;&gt;next_action_cli -->
<g id="edge7" class="edge"><title>next_action_pick_action&#45;&gt;next_action_cli</title>
<path fill="none" stroke="black" d="M53.0959,-163.441C27.1197,-149.032 -3.93334,-125.101 7.31257,-97"/>
</g>
<!-- next_action_todotxt_Tasks -->
<g id="node3" class="node"><title>next_action_todotxt_Tasks</title>
<ellipse fill="#cc3333" stroke="black" cx="316.313" cy="-359" rx="49.1678" ry="26.7407"/>
<text text-anchor="middle" x="316.313" y="-366" font-family="Helvetica,sans-Serif" font-size="10.00" fill="#ffffff">next_action.</text>
<text text-anchor="middle" x="316.313" y="-356" font-family="Helvetica,sans-Serif" font-size="10.00" fill="#ffffff">todotxt.</text>
<text text-anchor="middle" x="316.313" y="-346" font-family="Helvetica,sans-Serif" font-size="10.00" fill="#ffffff">Tasks</text>
</g>
<!-- next_action_todotxt_Tasks&#45;&gt;next_action_pick_action -->
<g id="edge2" class="edge"><title>next_action_todotxt_Tasks&#45;&gt;next_action_pick_action</title>
<path fill="none" stroke="black" d="M299.515,-333.632C281,-308.179 249.183,-268.359 214.313,-242 206.553,-236.135 160.202,-214.495 125.037,-198.424"/>
<polygon fill="black" stroke="black" points="126.465,-195.228 115.914,-194.264 123.561,-201.597 126.465,-195.228"/>
</g>
<!-- next_action_todotxt_Tasks&#45;&gt;next_action_cli -->
<g id="edge4" class="edge"><title>next_action_todotxt_Tasks&#45;&gt;next_action_cli</title>
<path fill="none" stroke="black" d="M316.313,-268C310.846,-215.637 313.208,-200.323 292.313,-152 275.069,-112.123 244.578,-72.0981 223.449,-46.9763"/>
<polygon fill="black" stroke="black" points="225.833,-44.3781 216.676,-39.0498 220.512,-48.9258 225.833,-44.3781"/>
</g>
<!-- next_action_todotxt_Tasks&#45;&gt;next_action_output -->
<g id="edge10" class="edge"><title>next_action_todotxt_Tasks&#45;&gt;next_action_output</title>
<path fill="none" stroke="black" d="M316.313,-268C311.889,-225.629 309.945,-208.536 278.313,-180"/>
<path fill="none" stroke="black" d="M317.721,-332.128C318.333,-314.556 318.486,-290.817 316.313,-270"/>
</g>
<!-- next_action_todotxt -->
<g id="node4" class="node"><title>next_action_todotxt</title>
<ellipse fill="#dd1818" stroke="black" cx="82.3126" cy="-359" rx="49.1678" ry="19.6"/>
<text text-anchor="middle" x="82.3126" y="-361" font-family="Helvetica,sans-Serif" font-size="10.00" fill="#ffffff">next_action.</text>
<text text-anchor="middle" x="82.3126" y="-351" font-family="Helvetica,sans-Serif" font-size="10.00" fill="#ffffff">todotxt</text>
</g>
<!-- next_action_todotxt&#45;&gt;next_action_pick_action -->
<g id="edge3" class="edge"><title>next_action_todotxt&#45;&gt;next_action_pick_action</title>
<path fill="none" stroke="black" d="M82.3126,-268C83.9606,-248.514 84.4608,-226.52 84.5489,-209.394"/>
<polygon fill="black" stroke="black" points="88.049,-208.921 84.5551,-198.919 81.0491,-208.917 88.049,-208.921"/>
</g>
<!-- next_action_todotxt&#45;&gt;next_action_cli -->
<g id="edge6" class="edge"><title>next_action_todotxt&#45;&gt;next_action_cli</title>
<path fill="none" stroke="black" d="M7.31257,-95C27.6023,-44.3002 91.9676,-27.7278 140.839,-22.6246"/>
<polygon fill="black" stroke="black" points="141.368,-26.0911 151.011,-21.7016 140.735,-19.1197 141.368,-26.0911"/>
<path fill="none" stroke="black" d="M82.3126,-268C86.6433,-216.794 13.985,-230.954 7.31257,-180"/>
<path fill="none" stroke="black" d="M81.3931,-339.078C80.7434,-321.231 80.304,-293.749 82.3126,-270"/>
<path fill="none" stroke="black" d="M7.31257,-178C2.63821,-142.305 -6.06305,-130.423 7.31257,-97"/>
</g>
<!-- next_action_todotxt&#45;&gt;next_action_output -->
<g id="edge11" class="edge"><title>next_action_todotxt&#45;&gt;next_action_output</title>
<path fill="none" stroke="black" d="M7.31257,-178C3.9691,-152.468 24.7865,-131.639 45.6125,-117.499"/>
<polygon fill="black" stroke="black" points="47.6146,-120.373 54.158,-112.04 43.8464,-114.474 47.6146,-120.373"/>
</g>
<!-- next_action_todotxt&#45;&gt;next_action_output_reference -->
<g id="edge18" class="edge"><title>next_action_todotxt&#45;&gt;next_action_output_reference</title>
<path fill="none" stroke="black" d="M82.3126,-268C83.9257,-248.926 123.969,-222.247 157.164,-203.275"/>
<polygon fill="black" stroke="black" points="159.301,-206.089 166.307,-198.141 155.874,-199.985 159.301,-206.089"/>
</g>
<!-- next_action_arguments -->
<g id="node6" class="node"><title>next_action_arguments</title>
<ellipse fill="#c04040" stroke="black" cx="479.313" cy="-96" rx="49.1678" ry="19.6"/>
<text text-anchor="middle" x="479.313" y="-98" font-family="Helvetica,sans-Serif" font-size="10.00" fill="#ffffff">next_action.</text>
<text text-anchor="middle" x="479.313" y="-88" font-family="Helvetica,sans-Serif" font-size="10.00" fill="#ffffff">arguments</text>
</g>
<!-- next_action_arguments&#45;&gt;next_action_cli -->
<g id="edge5" class="edge"><title>next_action_arguments&#45;&gt;next_action_cli</title>
<path fill="none" stroke="black" d="M439.339,-84.3976C389.55,-71.1921 304.469,-48.6258 250.387,-34.2814"/>
<polygon fill="black" stroke="black" points="251.228,-30.8835 240.665,-31.7028 249.433,-37.6496 251.228,-30.8835"/>
</g>
<!-- next_action_output&#45;&gt;next_action_cli -->
<g id="edge8" class="edge"><title>next_action_output&#45;&gt;next_action_cli</title>
<path fill="none" stroke="black" d="M109.483,-78.9431C126.089,-68.3494 148.05,-54.3402 166.217,-42.7506"/>
<polygon fill="black" stroke="black" points="168.243,-45.61 174.791,-37.2811 164.478,-39.7086 168.243,-45.61"/>
</g>
<!-- next_action_output_color -->
<g id="node8" class="node"><title>next_action_output_color</title>
<ellipse fill="#b03a3a" stroke="black" cx="393.313" cy="-269" rx="49.1678" ry="26.7407"/>
<text text-anchor="middle" x="393.313" y="-276" font-family="Helvetica,sans-Serif" font-size="10.00" fill="#ffffff">next_action.</text>
<text text-anchor="middle" x="393.313" y="-266" font-family="Helvetica,sans-Serif" font-size="10.00" fill="#ffffff">output.</text>
<text text-anchor="middle" x="393.313" y="-256" font-family="Helvetica,sans-Serif" font-size="10.00" fill="#ffffff">color</text>
</g>
<!-- next_action_output_color&#45;&gt;next_action_output -->
<g id="edge12" class="edge"><title>next_action_output_color&#45;&gt;next_action_output</title>
<path fill="none" stroke="black" d="M363.502,-247.125C339.687,-229.997 305.857,-204.638 278.313,-180"/>
</g>
<!-- next_action_output_reference&#45;&gt;next_action_output -->
<g id="edge13" class="edge"><title>next_action_output_reference&#45;&gt;next_action_output</title>
<path fill="none" stroke="black" d="M171.486,-157.351C154.766,-145.776 133.895,-131.326 116.767,-119.469"/>
<polygon fill="black" stroke="black" points="118.407,-116.347 108.193,-113.533 114.423,-122.103 118.407,-116.347"/>
</g>
<!-- pygments -->
<g id="node10" class="node"><title>pygments</title>
<ellipse fill="#c8f906" stroke="black" cx="497.313" cy="-539" rx="33.905" ry="18"/>
<text text-anchor="middle" x="497.313" y="-536" font-family="Helvetica,sans-Serif" font-size="10.00" fill="#000000">pygments</text>
</g>
<!-- pygments&#45;&gt;next_action_output_color -->
<g id="edge14" class="edge"><title>pygments&#45;&gt;next_action_output_color</title>
<path fill="none" stroke="black" d="M475.102,-525.107C444.09,-506.305 391.744,-471.288 393.313,-450"/>
</g>
<!-- pygments&#45;&gt;pygments -->
<g id="edge32" class="edge"><title>pygments&#45;&gt;pygments</title>
<path fill="none" stroke="black" d="M517.324,-553.6C533.113,-559.247 549.313,-554.381 549.313,-539 549.313,-526.864 539.226,-521.273 527.215,-522.23"/>
<polygon fill="black" stroke="black" points="526.342,-518.838 517.324,-524.4 527.842,-525.675 526.342,-518.838"/>
</g>
<!-- next_action_arguments_parser -->
<g id="node15" class="node"><title>next_action_arguments_parser</title>
<ellipse fill="#a13535" stroke="black" cx="593.313" cy="-179" rx="49.1678" ry="26.7407"/>
<text text-anchor="middle" x="593.313" y="-186" font-family="Helvetica,sans-Serif" font-size="10.00" fill="#ffffff">next_action.</text>
<text text-anchor="middle" x="593.313" y="-176" font-family="Helvetica,sans-Serif" font-size="10.00" fill="#ffffff">arguments.</text>
<text text-anchor="middle" x="593.313" y="-166" font-family="Helvetica,sans-Serif" font-size="10.00" fill="#ffffff">parser</text>
</g>
<!-- pygments&#45;&gt;next_action_arguments_parser -->
<g id="edge28" class="edge"><title>pygments&#45;&gt;next_action_arguments_parser</title>
<path fill="none" stroke="black" d="M521.823,-526.099C548.904,-512.478 590.058,-490.221 600.313,-476 631.214,-433.144 635.421,-412.044 626.313,-360"/>
<path fill="none" stroke="black" d="M626.313,-358C620.946,-308.034 554.714,-320.25 555.313,-270"/>
</g>
<!-- next_action_arguments_config -->
<g id="node17" class="node"><title>next_action_arguments_config</title>
<ellipse fill="#a83838" stroke="black" cx="632.313" cy="-269" rx="49.1678" ry="26.7407"/>
<text text-anchor="middle" x="632.313" y="-276" font-family="Helvetica,sans-Serif" font-size="10.00" fill="#ffffff">next_action.</text>
<text text-anchor="middle" x="632.313" y="-266" font-family="Helvetica,sans-Serif" font-size="10.00" fill="#ffffff">arguments.</text>
<text text-anchor="middle" x="632.313" y="-256" font-family="Helvetica,sans-Serif" font-size="10.00" fill="#ffffff">config</text>
</g>
<!-- pygments&#45;&gt;next_action_arguments_config -->
<g id="edge25" class="edge"><title>pygments&#45;&gt;next_action_arguments_config</title>
<path fill="none" stroke="black" d="M626.313,-358C623.346,-341.048 624.14,-322.021 625.965,-306.007"/>
<polygon fill="black" stroke="black" points="629.451,-306.342 627.284,-295.971 622.511,-305.43 629.451,-306.342"/>
</g>
<!-- pygments_lexers -->
<g id="node11" class="node"><title>pygments_lexers</title>
<ellipse fill="#9fb83d" stroke="black" cx="259.313" cy="-539" rx="43.4026" ry="19.6"/>
<text text-anchor="middle" x="259.313" y="-541" font-family="Helvetica,sans-Serif" font-size="10.00" fill="#000000">pygments.</text>
<text text-anchor="middle" x="259.313" y="-531" font-family="Helvetica,sans-Serif" font-size="10.00" fill="#000000">lexers</text>
</g>
<!-- pygments_lexers&#45;&gt;next_action_output_color -->
<g id="edge15" class="edge"><title>pygments_lexers&#45;&gt;next_action_output_color</title>
<path fill="none" stroke="black" d="M393.313,-448C396.929,-398.912 396.045,-342.002 394.861,-306.006"/>
<polygon fill="black" stroke="black" points="398.358,-305.855 394.506,-295.985 391.363,-306.103 398.358,-305.855"/>
<path fill="none" stroke="black" d="M289.745,-524.736C328.598,-506.839 391.106,-474.393 393.313,-450"/>
</g>
<!-- pygments_lexers&#45;&gt;pygments_lexers -->
<g id="edge33" class="edge"><title>pygments_lexers&#45;&gt;pygments_lexers</title>
<path fill="none" stroke="black" d="M286.281,-554.54C303.623,-558.594 320.313,-553.414 320.313,-539 320.313,-527.401 309.506,-521.782 296.248,-522.141"/>
<polygon fill="black" stroke="black" points="295.736,-518.678 286.281,-523.46 296.654,-525.618 295.736,-518.678"/>
</g>
<!-- pygments_formatters -->
<g id="node12" class="node"><title>pygments_formatters</title>
<ellipse fill="#9fb83d" stroke="black" cx="383.313" cy="-539" rx="43.4026" ry="19.6"/>
<text text-anchor="middle" x="383.313" y="-541" font-family="Helvetica,sans-Serif" font-size="10.00" fill="#000000">pygments.</text>
<text text-anchor="middle" x="383.313" y="-531" font-family="Helvetica,sans-Serif" font-size="10.00" fill="#000000">formatters</text>
</g>
<!-- pygments_formatters&#45;&gt;next_action_output_color -->
<g id="edge16" class="edge"><title>pygments_formatters&#45;&gt;next_action_output_color</title>
<path fill="none" stroke="black" d="M385.891,-519.158C388.222,-501.367 391.55,-473.922 393.313,-450"/>
</g>
<!-- pygments_formatters&#45;&gt;pygments_formatters -->
<g id="edge34" class="edge"><title>pygments_formatters&#45;&gt;pygments_formatters</title>
<path fill="none" stroke="black" d="M410.281,-554.54C427.623,-558.594 444.313,-553.414 444.313,-539 444.313,-527.401 433.506,-521.782 420.248,-522.141"/>
<polygon fill="black" stroke="black" points="419.736,-518.678 410.281,-523.46 420.654,-525.618 419.736,-518.678"/>
</g>
<!-- next_action_todotxt_tasks -->
<g id="node13" class="node"><title>next_action_todotxt_tasks</title>
<ellipse fill="#c04040" stroke="black" cx="120.313" cy="-449" rx="49.1678" ry="26.7407"/>
<text text-anchor="middle" x="120.313" y="-456" font-family="Helvetica,sans-Serif" font-size="10.00" fill="#ffffff">next_action.</text>
<text text-anchor="middle" x="120.313" y="-446" font-family="Helvetica,sans-Serif" font-size="10.00" fill="#ffffff">todotxt.</text>
<text text-anchor="middle" x="120.313" y="-436" font-family="Helvetica,sans-Serif" font-size="10.00" fill="#ffffff">tasks</text>
</g>
<!-- next_action_todotxt_tasks&#45;&gt;next_action_todotxt -->
<g id="edge19" class="edge"><title>next_action_todotxt_tasks&#45;&gt;next_action_todotxt</title>
<path fill="none" stroke="black" d="M109.321,-422.547C104.642,-411.711 99.1699,-399.038 94.3791,-387.944"/>
<polygon fill="black" stroke="black" points="97.5592,-386.479 90.3816,-378.686 91.1328,-389.254 97.5592,-386.479"/>
</g>
<!-- next_action_todotxt_task -->
<g id="node14" class="node"><title>next_action_todotxt_task</title>
<ellipse fill="#db2f2f" stroke="black" cx="139.313" cy="-539" rx="49.1678" ry="26.7407"/>
<text text-anchor="middle" x="139.313" y="-546" font-family="Helvetica,sans-Serif" font-size="10.00" fill="#ffffff">next_action.</text>
<text text-anchor="middle" x="139.313" y="-536" font-family="Helvetica,sans-Serif" font-size="10.00" fill="#ffffff">todotxt.</text>
<text text-anchor="middle" x="139.313" y="-526" font-family="Helvetica,sans-Serif" font-size="10.00" fill="#ffffff">task</text>
</g>
<!-- next_action_todotxt_task&#45;&gt;next_action_todotxt_Tasks -->
<g id="edge31" class="edge"><title>next_action_todotxt_task&#45;&gt;next_action_todotxt_Tasks</title>
<path fill="none" stroke="black" d="M275.313,-448C278.053,-428.893 286.547,-409.27 295.098,-393.417"/>
<polygon fill="black" stroke="black" points="298.234,-394.98 300.096,-384.55 292.137,-391.543 298.234,-394.98"/>
</g>
<!-- next_action_todotxt_task&#45;&gt;next_action_todotxt -->
<g id="edge20" class="edge"><title>next_action_todotxt_task&#45;&gt;next_action_todotxt</title>
<path fill="none" stroke="black" d="M177.046,-521.419C216.136,-503.066 272.008,-473.036 275.313,-450"/>
<path fill="none" stroke="black" d="M275.313,-448C275.606,-445.954 180.485,-403.462 123.691,-378.284"/>
<polygon fill="black" stroke="black" points="124.805,-374.95 114.245,-374.1 121.97,-381.35 124.805,-374.95"/>
</g>
<!-- next_action_todotxt_task&#45;&gt;next_action_todotxt_tasks -->
<g id="edge21" class="edge"><title>next_action_todotxt_task&#45;&gt;next_action_todotxt_tasks</title>
<path fill="none" stroke="black" d="M133.715,-512.073C131.937,-503.838 129.938,-494.58 128.037,-485.777"/>
<polygon fill="black" stroke="black" points="131.402,-484.778 125.87,-475.742 124.56,-486.255 131.402,-484.778"/>
</g>
<!-- next_action_arguments_parser&#45;&gt;next_action_arguments -->
<g id="edge22" class="edge"><title>next_action_arguments_parser&#45;&gt;next_action_arguments</title>
<path fill="none" stroke="black" d="M563.955,-157.14C547.775,-145.645 527.675,-131.363 511.123,-119.602"/>
<polygon fill="black" stroke="black" points="513.009,-116.649 502.83,-113.71 508.954,-122.355 513.009,-116.649"/>
</g>
<!-- yaml -->
<g id="node16" class="node"><title>yaml</title>
<ellipse fill="#53b67b" stroke="black" cx="594.313" cy="-539" rx="27" ry="18"/>
<text text-anchor="middle" x="594.313" y="-536" font-family="Helvetica,sans-Serif" font-size="10.00" fill="#000000">yaml</text>
</g>
<!-- yaml&#45;&gt;next_action_arguments_config -->
<g id="edge23" class="edge"><title>yaml&#45;&gt;next_action_arguments_config</title>
<path fill="none" stroke="black" d="M612.926,-525.797C633.445,-510.868 664.466,-483.411 671.313,-450"/>
<path fill="none" stroke="black" d="M671.313,-448C681.529,-398.142 663.504,-340.653 648.697,-304.814"/>
<polygon fill="black" stroke="black" points="651.781,-303.124 644.632,-295.304 645.344,-305.875 651.781,-303.124"/>
</g>
<!-- next_action_arguments_config&#45;&gt;next_action_arguments_parser -->
<g id="edge29" class="edge"><title>next_action_arguments_config&#45;&gt;next_action_arguments_parser</title>
<path fill="none" stroke="black" d="M621.032,-242.547C617.192,-233.882 612.831,-224.042 608.724,-214.774"/>
<polygon fill="black" stroke="black" points="611.819,-213.12 604.568,-205.396 605.42,-215.957 611.819,-213.12"/>
</g>
<!-- pygments_styles -->
<g id="node18" class="node"><title>pygments_styles</title>
<ellipse fill="#a6c040" stroke="black" cx="783.313" cy="-539" rx="43.4026" ry="19.6"/>
<text text-anchor="middle" x="783.313" y="-541" font-family="Helvetica,sans-Serif" font-size="10.00" fill="#000000">pygments.</text>
<text text-anchor="middle" x="783.313" y="-531" font-family="Helvetica,sans-Serif" font-size="10.00" fill="#000000">styles</text>
</g>
<!-- pygments_styles&#45;&gt;next_action_arguments_parser -->
<g id="edge27" class="edge"><title>pygments_styles&#45;&gt;next_action_arguments_parser</title>
<path fill="none" stroke="black" d="M709.313,-358C691.008,-309.069 719.039,-285.636 690.313,-242 678.521,-224.088 659.574,-210.3 641.541,-200.325"/>
<polygon fill="black" stroke="black" points="642.719,-196.991 632.237,-195.454 639.473,-203.193 642.719,-196.991"/>
</g>
<!-- pygments_styles&#45;&gt;next_action_arguments_config -->
<g id="edge24" class="edge"><title>pygments_styles&#45;&gt;next_action_arguments_config</title>
<path fill="none" stroke="black" d="M772.821,-519.539C755.57,-488.028 721.875,-421.309 709.313,-360"/>
<path fill="none" stroke="black" d="M709.313,-358C700.816,-335.287 683.484,-314.611 667.411,-299.015"/>
<polygon fill="black" stroke="black" points="669.363,-296.049 659.667,-291.781 664.585,-301.165 669.363,-296.049"/>
</g>
<!-- cerberus -->
<g id="node19" class="node"><title>cerberus</title>
<ellipse fill="#4073c0" stroke="black" cx="671.313" cy="-539" rx="31.5493" ry="18"/>
<text text-anchor="middle" x="671.313" y="-536" font-family="Helvetica,sans-Serif" font-size="10.00" fill="#ffffff">cerberus</text>
</g>
<!-- cerberus&#45;&gt;next_action_arguments_config -->
<g id="edge26" class="edge"><title>cerberus&#45;&gt;next_action_arguments_config</title>
<path fill="none" stroke="black" d="M669.576,-520.978C668.159,-503.14 667.019,-474.375 671.313,-450"/>
</g>
<!-- cerberus&#45;&gt;cerberus -->
<g id="edge35" class="edge"><title>cerberus&#45;&gt;cerberus</title>
<path fill="none" stroke="black" d="M689.915,-553.502C704.872,-559.303 720.313,-554.469 720.313,-539 720.313,-527.036 711.076,-521.434 699.97,-522.193"/>
<polygon fill="black" stroke="black" points="698.88,-518.852 689.915,-524.498 700.444,-525.675 698.88,-518.852"/>
</g>
<!-- dateparser -->
<g id="node20" class="node"><title>dateparser</title>
<ellipse fill="#a253b6" stroke="black" cx="555.313" cy="-449" rx="36.2615" ry="18"/>
<text text-anchor="middle" x="555.313" y="-446" font-family="Helvetica,sans-Serif" font-size="10.00" fill="#ffffff">dateparser</text>
</g>
<!-- dateparser&#45;&gt;next_action_arguments_parser -->
<g id="edge30" class="edge"><title>dateparser&#45;&gt;next_action_arguments_parser</title>
<path fill="none" stroke="black" d="M555.313,-268C555.539,-248.943 563.168,-229.325 571.531,-213.462"/>
<polygon fill="black" stroke="black" points="574.667,-215.026 576.489,-204.589 568.556,-211.611 574.667,-215.026"/>
<path fill="none" stroke="black" d="M555.177,-430.816C554.956,-399.056 554.61,-329.02 555.313,-270"/>
</g>
</g>
</svg>
