<?xml version="1.0" encoding="UTF-8" standalone="no"?>
<!DOCTYPE svg PUBLIC "-//W3C//DTD SVG 1.1//EN"
 "http://www.w3.org/Graphics/SVG/1.1/DTD/svg11.dtd">
<!-- Generated by graphviz version 2.36.0 (20140111.2315)
 -->
<!-- Title: G Pages: 1 -->
<svg width="830pt" height="574pt"
 viewBox="0.00 0.00 830.03 574.00" xmlns="http://www.w3.org/2000/svg" xmlns:xlink="http://www.w3.org/1999/xlink">
<g id="graph0" class="graph" transform="scale(1 1) rotate(0) translate(4 570)">
<title>G</title>
<polygon fill="white" stroke="none" points="-4,4 -4,-570 826.029,-570 826.029,4 -4,4"/>
<!-- next_action_todotxt_Task -->
<g id="node1" class="node"><title>next_action_todotxt_Task</title>
<ellipse fill="#ce3b3b" stroke="black" cx="195.029" cy="-359" rx="49.1678" ry="26.7407"/>
<text text-anchor="middle" x="195.029" y="-366" font-family="Helvetica,sans-Serif" font-size="10.00" fill="#ffffff">next_action.</text>
<text text-anchor="middle" x="195.029" y="-356" font-family="Helvetica,sans-Serif" font-size="10.00" fill="#ffffff">todotxt.</text>
<text text-anchor="middle" x="195.029" y="-346" font-family="Helvetica,sans-Serif" font-size="10.00" fill="#ffffff">Task</text>
</g>
<!-- next_action_pick_action -->
<g id="node2" class="node"><title>next_action_pick_action</title>
<ellipse fill="#b03a3a" stroke="black" cx="235.029" cy="-179" rx="49.1678" ry="19.6"/>
<text text-anchor="middle" x="235.029" y="-181" font-family="Helvetica,sans-Serif" font-size="10.00" fill="#ffffff">next_action.</text>
<text text-anchor="middle" x="235.029" y="-171" font-family="Helvetica,sans-Serif" font-size="10.00" fill="#ffffff">pick_action</text>
</g>
<!-- next_action_todotxt_Task&#45;&gt;next_action_pick_action -->
<g id="edge1" class="edge"><title>next_action_todotxt_Task&#45;&gt;next_action_pick_action</title>
<path fill="none" stroke="black" d="M215.029,-268C213.154,-247.847 218.265,-225.624 223.788,-208.552"/>
<polygon fill="black" stroke="black" points="227.251,-209.247 227.222,-198.653 220.638,-206.953 227.251,-209.247"/>
</g>
<!-- next_action_output -->
<g id="node7" class="node"><title>next_action_output</title>
<ellipse fill="#a13535" stroke="black" cx="80.0294" cy="-96" rx="49.1678" ry="19.6"/>
<text text-anchor="middle" x="80.0294" y="-98" font-family="Helvetica,sans-Serif" font-size="10.00" fill="#ffffff">next_action.</text>
<text text-anchor="middle" x="80.0294" y="-88" font-family="Helvetica,sans-Serif" font-size="10.00" fill="#ffffff">output</text>
</g>
<!-- next_action_todotxt_Task&#45;&gt;next_action_output -->
<g id="edge11" class="edge"><title>next_action_todotxt_Task&#45;&gt;next_action_output</title>
<path fill="none" stroke="black" d="M166.484,-336.82C133.571,-310.427 81.2782,-261.923 60.0294,-206 49.9692,-179.523 58.0932,-147.453 66.8143,-124.977"/>
<polygon fill="black" stroke="black" points="70.0726,-126.257 70.6683,-115.679 63.606,-123.577 70.0726,-126.257"/>
</g>
<!-- next_action_output_reference -->
<g id="node9" class="node"><title>next_action_output_reference</title>
<ellipse fill="#b83d3d" stroke="black" cx="118.029" cy="-179" rx="49.1678" ry="26.7407"/>
<text text-anchor="middle" x="118.029" y="-186" font-family="Helvetica,sans-Serif" font-size="10.00" fill="#ffffff">next_action.</text>
<text text-anchor="middle" x="118.029" y="-176" font-family="Helvetica,sans-Serif" font-size="10.00" fill="#ffffff">output.</text>
<text text-anchor="middle" x="118.029" y="-166" font-family="Helvetica,sans-Serif" font-size="10.00" fill="#ffffff">reference</text>
</g>
<!-- next_action_todotxt_Task&#45;&gt;next_action_output_reference -->
<g id="edge17" class="edge"><title>next_action_todotxt_Task&#45;&gt;next_action_output_reference</title>
<path fill="none" stroke="black" d="M205.265,-332.487C211.15,-315.072 217.018,-291.372 215.029,-270"/>
<path fill="none" stroke="black" d="M215.029,-268C212.309,-238.763 187.649,-216.629 163.877,-201.873"/>
<polygon fill="black" stroke="black" points="165.595,-198.823 155.201,-196.771 162.047,-204.857 165.595,-198.823"/>
</g>
<!-- next_action_cli -->
<g id="node6" class="node"><title>next_action_cli</title>
<ellipse fill="#8f3d3d" stroke="black" cx="215.029" cy="-20" rx="49.1678" ry="19.6"/>
<text text-anchor="middle" x="215.029" y="-22" font-family="Helvetica,sans-Serif" font-size="10.00" fill="#ffffff">next_action.</text>
<text text-anchor="middle" x="215.029" y="-12" font-family="Helvetica,sans-Serif" font-size="10.00" fill="#ffffff">cli</text>
</g>
<!-- next_action_pick_action&#45;&gt;next_action_cli -->
<g id="edge6" class="edge"><title>next_action_pick_action&#45;&gt;next_action_cli</title>
<path fill="none" stroke="black" d="M276.487,-168.009C312.846,-156.644 358.679,-134.603 350.029,-97"/>
<path fill="none" stroke="black" d="M350.029,-95C341.795,-59.2021 303.494,-40.513 269.782,-30.8803"/>
<polygon fill="black" stroke="black" points="270.528,-27.4575 259.966,-28.2846 268.739,-34.2249 270.528,-27.4575"/>
</g>
<!-- next_action_todotxt_Tasks -->
<g id="node3" class="node"><title>next_action_todotxt_Tasks</title>
<ellipse fill="#cc3333" stroke="black" cx="312.029" cy="-359" rx="49.1678" ry="26.7407"/>
<text text-anchor="middle" x="312.029" y="-366" font-family="Helvetica,sans-Serif" font-size="10.00" fill="#ffffff">next_action.</text>
<text text-anchor="middle" x="312.029" y="-356" font-family="Helvetica,sans-Serif" font-size="10.00" fill="#ffffff">todotxt.</text>
<text text-anchor="middle" x="312.029" y="-346" font-family="Helvetica,sans-Serif" font-size="10.00" fill="#ffffff">Tasks</text>
</g>
<!-- next_action_todotxt_Tasks&#45;&gt;next_action_pick_action -->
<g id="edge2" class="edge"><title>next_action_todotxt_Tasks&#45;&gt;next_action_pick_action</title>
<path fill="none" stroke="black" d="M313.011,-331.781C313.425,-314.265 313.518,-290.724 312.029,-270"/>
<path fill="none" stroke="black" d="M312.029,-268C310.06,-240.593 288.649,-217.568 268.904,-201.952"/>
<polygon fill="black" stroke="black" points="270.989,-199.141 260.893,-195.927 266.782,-204.735 270.989,-199.141"/>
</g>
<!-- next_action_todotxt_Tasks&#45;&gt;next_action_cli -->
<g id="edge5" class="edge"><title>next_action_todotxt_Tasks&#45;&gt;next_action_cli</title>
<path fill="none" stroke="black" d="M312.029,-268C310.005,-239.823 319.881,-233.572 326.029,-206 336.826,-157.584 361.15,-145.342 350.029,-97"/>
</g>
<!-- next_action_todotxt_Tasks&#45;&gt;next_action_output -->
<g id="edge10" class="edge"><title>next_action_todotxt_Tasks&#45;&gt;next_action_output</title>
<path fill="none" stroke="black" d="M312.029,-268C309.226,-228.989 340.511,-206.804 312.029,-180"/>
<path fill="none" stroke="black" d="M312.029,-178C301.607,-168.191 304.872,-160.036 293.029,-152 246.755,-120.599 183.732,-107.125 138.259,-101.344"/>
<polygon fill="black" stroke="black" points="138.599,-97.8604 128.257,-100.16 137.776,-104.812 138.599,-97.8604"/>
</g>
<!-- next_action_todotxt -->
<g id="node4" class="node"><title>next_action_todotxt</title>
<ellipse fill="#dd1818" stroke="black" cx="78.0294" cy="-359" rx="49.1678" ry="19.6"/>
<text text-anchor="middle" x="78.0294" y="-361" font-family="Helvetica,sans-Serif" font-size="10.00" fill="#ffffff">next_action.</text>
<text text-anchor="middle" x="78.0294" y="-351" font-family="Helvetica,sans-Serif" font-size="10.00" fill="#ffffff">todotxt</text>
</g>
<!-- next_action_todotxt&#45;&gt;next_action_pick_action -->
<g id="edge3" class="edge"><title>next_action_todotxt&#45;&gt;next_action_pick_action</title>
<path fill="none" stroke="black" d="M157.029,-268C169.381,-243.496 190.265,-220.464 207.317,-204.113"/>
<polygon fill="black" stroke="black" points="209.918,-206.473 214.837,-197.09 205.14,-201.357 209.918,-206.473"/>
</g>
<!-- next_action_todotxt&#45;&gt;next_action_cli -->
<g id="edge8" class="edge"><title>next_action_todotxt&#45;&gt;next_action_cli</title>
<path fill="none" stroke="black" d="M3.02937,-178C12.9647,-132.97 -9.01891,-110.094 22.0294,-76 55.6916,-39.0353 112.256,-26.2296 155.471,-22.1133"/>
<polygon fill="black" stroke="black" points="155.909,-25.5892 165.589,-21.2828 155.336,-18.6127 155.909,-25.5892"/>
<path fill="none" stroke="black" d="M61.7451,-339.945C35.3951,-308.499 -12.1844,-241.181 3.02937,-180"/>
</g>
<!-- next_action_todotxt&#45;&gt;next_action_output -->
<g id="edge13" class="edge"><title>next_action_todotxt&#45;&gt;next_action_output</title>
<path fill="none" stroke="black" d="M3.02937,-178C8.39463,-153.683 27.7338,-133.389 45.6868,-119.197"/>
<polygon fill="black" stroke="black" points="47.8912,-121.918 53.7828,-113.113 43.6858,-116.322 47.8912,-121.918"/>
</g>
<!-- next_action_todotxt&#45;&gt;next_action_output_reference -->
<g id="edge18" class="edge"><title>next_action_todotxt&#45;&gt;next_action_output_reference</title>
<path fill="none" stroke="black" d="M157.029,-268C166.253,-249.701 157.692,-228.742 146.268,-211.869"/>
<polygon fill="black" stroke="black" points="148.841,-209.458 140.112,-203.454 143.191,-213.591 148.841,-209.458"/>
<path fill="none" stroke="black" d="M98.528,-340.985C116.766,-324.683 142.706,-298.417 157.029,-270"/>
</g>
<!-- next_action_arguments -->
<g id="node5" class="node"><title>next_action_arguments</title>
<ellipse fill="#c04040" stroke="black" cx="519.029" cy="-96" rx="49.1678" ry="19.6"/>
<text text-anchor="middle" x="519.029" y="-98" font-family="Helvetica,sans-Serif" font-size="10.00" fill="#ffffff">next_action.</text>
<text text-anchor="middle" x="519.029" y="-88" font-family="Helvetica,sans-Serif" font-size="10.00" fill="#ffffff">arguments</text>
</g>
<!-- next_action_arguments&#45;&gt;next_action_cli -->
<g id="edge4" class="edge"><title>next_action_arguments&#45;&gt;next_action_cli</title>
<path fill="none" stroke="black" d="M478.031,-85.02C423.183,-71.669 325.938,-47.9975 266.306,-33.4817"/>
<polygon fill="black" stroke="black" points="266.894,-30.0227 256.349,-31.0582 265.238,-36.8241 266.894,-30.0227"/>
</g>
<!-- next_action_output&#45;&gt;next_action_cli -->
<g id="edge7" class="edge"><title>next_action_output&#45;&gt;next_action_cli</title>
<path fill="none" stroke="black" d="M108.001,-79.6672C128.365,-68.5048 156.14,-53.2803 178.291,-41.1379"/>
<polygon fill="black" stroke="black" points="180.006,-44.1891 187.093,-36.3132 176.642,-38.0508 180.006,-44.1891"/>
</g>
<!-- next_action_output_color -->
<g id="node8" class="node"><title>next_action_output_color</title>
<ellipse fill="#b03a3a" stroke="black" cx="389.029" cy="-269" rx="49.1678" ry="26.7407"/>
<text text-anchor="middle" x="389.029" y="-276" font-family="Helvetica,sans-Serif" font-size="10.00" fill="#ffffff">next_action.</text>
<text text-anchor="middle" x="389.029" y="-266" font-family="Helvetica,sans-Serif" font-size="10.00" fill="#ffffff">output.</text>
<text text-anchor="middle" x="389.029" y="-256" font-family="Helvetica,sans-Serif" font-size="10.00" fill="#ffffff">color</text>
</g>
<!-- next_action_output_color&#45;&gt;next_action_output -->
<g id="edge9" class="edge"><title>next_action_output_color&#45;&gt;next_action_output</title>
<path fill="none" stroke="black" d="M370.244,-244.092C355.321,-225.726 333.465,-200.174 312.029,-180"/>
</g>
<!-- next_action_output_reference&#45;&gt;next_action_output -->
<g id="edge12" class="edge"><title>next_action_output_reference&#45;&gt;next_action_output</title>
<path fill="none" stroke="black" d="M106.214,-152.815C102.086,-144.016 97.4277,-134.086 93.1964,-125.067"/>
<polygon fill="black" stroke="black" points="96.2341,-123.301 88.8182,-115.734 89.8968,-126.274 96.2341,-123.301"/>
</g>
<!-- pygments_formatters -->
<g id="node10" class="node"><title>pygments_formatters</title>
<ellipse fill="#9fb83d" stroke="black" cx="255.029" cy="-539" rx="43.4026" ry="19.6"/>
<text text-anchor="middle" x="255.029" y="-541" font-family="Helvetica,sans-Serif" font-size="10.00" fill="#000000">pygments.</text>
<text text-anchor="middle" x="255.029" y="-531" font-family="Helvetica,sans-Serif" font-size="10.00" fill="#000000">formatters</text>
</g>
<!-- pygments_formatters&#45;&gt;next_action_output_color -->
<g id="edge14" class="edge"><title>pygments_formatters&#45;&gt;next_action_output_color</title>
<path fill="none" stroke="black" d="M389.029,-448C392.646,-398.912 391.762,-342.002 390.578,-306.006"/>
<polygon fill="black" stroke="black" points="394.075,-305.855 390.223,-295.985 387.079,-306.103 394.075,-305.855"/>
<path fill="none" stroke="black" d="M285.462,-524.736C324.315,-506.839 386.823,-474.393 389.029,-450"/>
</g>
<!-- pygments_formatters&#45;&gt;pygments_formatters -->
<g id="edge34" class="edge"><title>pygments_formatters&#45;&gt;pygments_formatters</title>
<path fill="none" stroke="black" d="M281.998,-554.54C299.34,-558.594 316.029,-553.414 316.029,-539 316.029,-527.401 305.222,-521.782 291.965,-522.141"/>
<polygon fill="black" stroke="black" points="291.453,-518.678 281.998,-523.46 292.371,-525.618 291.453,-518.678"/>
</g>
<!-- pygments -->
<g id="node11" class="node"><title>pygments</title>
<ellipse fill="#c8f906" stroke="black" cx="493.029" cy="-539" rx="33.905" ry="18"/>
<text text-anchor="middle" x="493.029" y="-536" font-family="Helvetica,sans-Serif" font-size="10.00" fill="#000000">pygments</text>
</g>
<!-- pygments&#45;&gt;next_action_output_color -->
<g id="edge15" class="edge"><title>pygments&#45;&gt;next_action_output_color</title>
<path fill="none" stroke="black" d="M470.818,-525.107C439.806,-506.305 387.461,-471.288 389.029,-450"/>
</g>
<!-- pygments&#45;&gt;pygments -->
<g id="edge32" class="edge"><title>pygments&#45;&gt;pygments</title>
<path fill="none" stroke="black" d="M513.041,-553.6C528.83,-559.247 545.029,-554.381 545.029,-539 545.029,-526.864 534.943,-521.273 522.931,-522.23"/>
<polygon fill="black" stroke="black" points="522.058,-518.838 513.041,-524.4 523.559,-525.675 522.058,-518.838"/>
</g>
<!-- next_action_arguments_parser -->
<g id="node15" class="node"><title>next_action_arguments_parser</title>
<ellipse fill="#a13535" stroke="black" cx="612.029" cy="-179" rx="49.1678" ry="26.7407"/>
<text text-anchor="middle" x="612.029" y="-186" font-family="Helvetica,sans-Serif" font-size="10.00" fill="#ffffff">next_action.</text>
<text text-anchor="middle" x="612.029" y="-176" font-family="Helvetica,sans-Serif" font-size="10.00" fill="#ffffff">arguments.</text>
<text text-anchor="middle" x="612.029" y="-166" font-family="Helvetica,sans-Serif" font-size="10.00" fill="#ffffff">parser</text>
</g>
<!-- pygments&#45;&gt;next_action_arguments_parser -->
<g id="edge29" class="edge"><title>pygments&#45;&gt;next_action_arguments_parser</title>
<path fill="none" stroke="black" d="M645.029,-358C636.365,-308.499 573.431,-320.25 574.029,-270"/>
<path fill="none" stroke="black" d="M518.538,-526.873C553.367,-511.469 612.28,-484.572 619.029,-476 651.715,-434.489 654.138,-412.044 645.029,-360"/>
</g>
<!-- next_action_arguments_config -->
<g id="node17" class="node"><title>next_action_arguments_config</title>
<ellipse fill="#a83838" stroke="black" cx="651.029" cy="-269" rx="49.1678" ry="26.7407"/>
<text text-anchor="middle" x="651.029" y="-276" font-family="Helvetica,sans-Serif" font-size="10.00" fill="#ffffff">next_action.</text>
<text text-anchor="middle" x="651.029" y="-266" font-family="Helvetica,sans-Serif" font-size="10.00" fill="#ffffff">arguments.</text>
<text text-anchor="middle" x="651.029" y="-256" font-family="Helvetica,sans-Serif" font-size="10.00" fill="#ffffff">config</text>
</g>
<!-- pygments&#45;&gt;next_action_arguments_config -->
<g id="edge24" class="edge"><title>pygments&#45;&gt;next_action_arguments_config</title>
<path fill="none" stroke="black" d="M645.029,-358C642.062,-341.048 642.857,-322.021 644.682,-306.007"/>
<polygon fill="black" stroke="black" points="648.168,-306.342 646.001,-295.971 641.227,-305.43 648.168,-306.342"/>
</g>
<!-- pygments_lexers -->
<g id="node12" class="node"><title>pygments_lexers</title>
<ellipse fill="#9fb83d" stroke="black" cx="379.029" cy="-539" rx="43.4026" ry="19.6"/>
<text text-anchor="middle" x="379.029" y="-541" font-family="Helvetica,sans-Serif" font-size="10.00" fill="#000000">pygments.</text>
<text text-anchor="middle" x="379.029" y="-531" font-family="Helvetica,sans-Serif" font-size="10.00" fill="#000000">lexers</text>
</g>
<!-- pygments_lexers&#45;&gt;next_action_output_color -->
<g id="edge16" class="edge"><title>pygments_lexers&#45;&gt;next_action_output_color</title>
<path fill="none" stroke="black" d="M381.608,-519.158C383.939,-501.367 387.267,-473.922 389.029,-450"/>
</g>
<!-- pygments_lexers&#45;&gt;pygments_lexers -->
<g id="edge33" class="edge"><title>pygments_lexers&#45;&gt;pygments_lexers</title>
<path fill="none" stroke="black" d="M405.998,-554.54C423.34,-558.594 440.029,-553.414 440.029,-539 440.029,-527.401 429.222,-521.782 415.965,-522.141"/>
<polygon fill="black" stroke="black" points="415.453,-518.678 405.998,-523.46 416.371,-525.618 415.453,-518.678"/>
</g>
<!-- next_action_todotxt_task -->
<g id="node13" class="node"><title>next_action_todotxt_task</title>
<ellipse fill="#db2f2f" stroke="black" cx="125.029" cy="-539" rx="49.1678" ry="26.7407"/>
<text text-anchor="middle" x="125.029" y="-546" font-family="Helvetica,sans-Serif" font-size="10.00" fill="#ffffff">next_action.</text>
<text text-anchor="middle" x="125.029" y="-536" font-family="Helvetica,sans-Serif" font-size="10.00" fill="#ffffff">todotxt.</text>
<text text-anchor="middle" x="125.029" y="-526" font-family="Helvetica,sans-Serif" font-size="10.00" fill="#ffffff">task</text>
</g>
<!-- next_action_todotxt_task&#45;&gt;next_action_todotxt_Tasks -->
<g id="edge31" class="edge"><title>next_action_todotxt_task&#45;&gt;next_action_todotxt_Tasks</title>
<path fill="none" stroke="black" d="M242.029,-448C247.048,-425.227 262.624,-404.546 277.813,-388.964"/>
<polygon fill="black" stroke="black" points="280.496,-391.235 285.19,-381.737 275.597,-386.235 280.496,-391.235"/>
</g>
<!-- next_action_todotxt_task&#45;&gt;next_action_todotxt -->
<g id="edge19" class="edge"><title>next_action_todotxt_task&#45;&gt;next_action_todotxt</title>
<path fill="none" stroke="black" d="M242.029,-448C243.544,-441.126 166.999,-402.831 117.968,-379.08"/>
<polygon fill="black" stroke="black" points="119.386,-375.878 108.859,-374.681 116.342,-382.182 119.386,-375.878"/>
<path fill="none" stroke="black" d="M165.917,-523.706C196.349,-510.247 233.961,-486.611 242.029,-450"/>
</g>
<!-- next_action_todotxt_tasks -->
<g id="node14" class="node"><title>next_action_todotxt_tasks</title>
<ellipse fill="#c04040" stroke="black" cx="87.0294" cy="-449" rx="49.1678" ry="26.7407"/>
<text text-anchor="middle" x="87.0294" y="-456" font-family="Helvetica,sans-Serif" font-size="10.00" fill="#ffffff">next_action.</text>
<text text-anchor="middle" x="87.0294" y="-446" font-family="Helvetica,sans-Serif" font-size="10.00" fill="#ffffff">todotxt.</text>
<text text-anchor="middle" x="87.0294" y="-436" font-family="Helvetica,sans-Serif" font-size="10.00" fill="#ffffff">tasks</text>
</g>
<!-- next_action_todotxt_task&#45;&gt;next_action_todotxt_tasks -->
<g id="edge21" class="edge"><title>next_action_todotxt_task&#45;&gt;next_action_todotxt_tasks</title>
<path fill="none" stroke="black" d="M114.038,-512.547C110.296,-503.882 106.047,-494.042 102.045,-484.774"/>
<polygon fill="black" stroke="black" points="105.173,-483.189 97.9958,-475.396 98.747,-485.964 105.173,-483.189"/>
</g>
<!-- next_action_todotxt_tasks&#45;&gt;next_action_todotxt -->
<g id="edge20" class="edge"><title>next_action_todotxt_tasks&#45;&gt;next_action_todotxt</title>
<path fill="none" stroke="black" d="M84.3778,-422.073C83.32,-411.73 82.0973,-399.775 81.0091,-389.135"/>
<polygon fill="black" stroke="black" points="84.476,-388.632 79.9767,-379.04 77.5124,-389.345 84.476,-388.632"/>
</g>
<!-- next_action_arguments_parser&#45;&gt;next_action_arguments -->
<g id="edge22" class="edge"><title>next_action_arguments_parser&#45;&gt;next_action_arguments</title>
<path fill="none" stroke="black" d="M586.617,-155.866C574.146,-145.005 559.109,-131.908 546.387,-120.828"/>
<polygon fill="black" stroke="black" points="548.649,-118.156 538.809,-114.228 544.051,-123.435 548.649,-118.156"/>
</g>
<!-- pygments_styles -->
<g id="node16" class="node"><title>pygments_styles</title>
<ellipse fill="#a6c040" stroke="black" cx="779.029" cy="-539" rx="43.4026" ry="19.6"/>
<text text-anchor="middle" x="779.029" y="-541" font-family="Helvetica,sans-Serif" font-size="10.00" fill="#000000">pygments.</text>
<text text-anchor="middle" x="779.029" y="-531" font-family="Helvetica,sans-Serif" font-size="10.00" fill="#000000">styles</text>
</g>
<!-- pygments_styles&#45;&gt;next_action_arguments_parser -->
<g id="edge28" class="edge"><title>pygments_styles&#45;&gt;next_action_arguments_parser</title>
<path fill="none" stroke="black" d="M728.029,-358C711.238,-308.529 737.756,-285.636 709.029,-242 697.238,-224.088 678.29,-210.3 660.257,-200.325"/>
<polygon fill="black" stroke="black" points="661.436,-196.991 650.953,-195.454 658.19,-203.193 661.436,-196.991"/>
</g>
<!-- pygments_styles&#45;&gt;next_action_arguments_config -->
<g id="edge23" class="edge"><title>pygments_styles&#45;&gt;next_action_arguments_config</title>
<path fill="none" stroke="black" d="M728.029,-358C723.082,-333.855 705.509,-312.82 688.399,-297.375"/>
<polygon fill="black" stroke="black" points="690.481,-294.549 680.617,-290.681 685.916,-299.855 690.481,-294.549"/>
<path fill="none" stroke="black" d="M772.628,-519.27C761.863,-487.086 740.129,-419.047 728.029,-360"/>
</g>
<!-- next_action_arguments_config&#45;&gt;next_action_arguments_parser -->
<g id="edge30" class="edge"><title>next_action_arguments_config&#45;&gt;next_action_arguments_parser</title>
<path fill="none" stroke="black" d="M639.749,-242.547C635.909,-233.882 631.548,-224.042 627.441,-214.774"/>
<polygon fill="black" stroke="black" points="630.536,-213.12 623.284,-205.396 624.136,-215.957 630.536,-213.12"/>
</g>
<!-- cerberus -->
<g id="node18" class="node"><title>cerberus</title>
<ellipse fill="#a640c0" stroke="black" cx="595.029" cy="-539" rx="31.5493" ry="18"/>
<text text-anchor="middle" x="595.029" y="-536" font-family="Helvetica,sans-Serif" font-size="10.00" fill="#ffffff">cerberus</text>
</g>
<!-- cerberus&#45;&gt;next_action_arguments_config -->
<g id="edge25" class="edge"><title>cerberus&#45;&gt;next_action_arguments_config</title>
<path fill="none" stroke="black" d="M690.029,-448C702.301,-398.458 683.616,-340.666 668.119,-304.697"/>
<polygon fill="black" stroke="black" points="671.132,-302.861 663.861,-295.156 664.74,-305.714 671.132,-302.861"/>
<path fill="none" stroke="black" d="M618.513,-526.771C643.89,-512.921 681.814,-486.635 690.029,-450"/>
</g>
<!-- cerberus&#45;&gt;cerberus -->
<g id="edge35" class="edge"><title>cerberus&#45;&gt;cerberus</title>
<path fill="none" stroke="black" d="M613.632,-553.502C628.589,-559.303 644.029,-554.469 644.029,-539 644.029,-527.036 634.793,-521.434 623.687,-522.193"/>
<polygon fill="black" stroke="black" points="622.597,-518.852 613.632,-524.498 624.161,-525.675 622.597,-518.852"/>
</g>
<!-- yaml -->
<g id="node19" class="node"><title>yaml</title>
<ellipse fill="#53b67b" stroke="black" cx="690.029" cy="-539" rx="27" ry="18"/>
<text text-anchor="middle" x="690.029" y="-536" font-family="Helvetica,sans-Serif" font-size="10.00" fill="#000000">yaml</text>
</g>
<!-- yaml&#45;&gt;next_action_arguments_config -->
<g id="edge26" class="edge"><title>yaml&#45;&gt;next_action_arguments_config</title>
<path fill="none" stroke="black" d="M687.622,-520.836C685.659,-502.882 684.079,-474.024 690.029,-450"/>
</g>
<!-- dateparser -->
<g id="node20" class="node"><title>dateparser</title>
<ellipse fill="#537bb6" stroke="black" cx="574.029" cy="-449" rx="36.2615" ry="18"/>
<text text-anchor="middle" x="574.029" y="-446" font-family="Helvetica,sans-Serif" font-size="10.00" fill="#ffffff">dateparser</text>
</g>
<!-- dateparser&#45;&gt;next_action_arguments_parser -->
<g id="edge27" class="edge"><title>dateparser&#45;&gt;next_action_arguments_parser</title>
<path fill="none" stroke="black" d="M574.029,-268C574.256,-248.943 581.885,-229.325 590.248,-213.462"/>
<polygon fill="black" stroke="black" points="593.383,-215.026 595.206,-204.589 587.273,-211.611 593.383,-215.026"/>
<path fill="none" stroke="black" d="M573.893,-430.816C573.673,-399.056 573.327,-329.02 574.029,-270"/>
</g>
</g>
</svg>
