<?xml version="1.0" encoding="UTF-8" standalone="no"?>
<!DOCTYPE svg PUBLIC "-//W3C//DTD SVG 1.1//EN"
 "http://www.w3.org/Graphics/SVG/1.1/DTD/svg11.dtd">
<!-- Generated by graphviz version 2.36.0 (20140111.2315)
 -->
<!-- Title: G Pages: 1 -->
<svg width="812pt" height="574pt"
 viewBox="0.00 0.00 812.00 574.00" xmlns="http://www.w3.org/2000/svg" xmlns:xlink="http://www.w3.org/1999/xlink">
<g id="graph0" class="graph" transform="scale(1 1) rotate(0) translate(4 570)">
<title>G</title>
<polygon fill="white" stroke="none" points="-4,4 -4,-570 808,-570 808,4 -4,4"/>
<!-- next_action_todotxt -->
<g id="node1" class="node"><title>next_action_todotxt</title>
<ellipse fill="#dd1818" stroke="black" cx="637" cy="-359" rx="49.1678" ry="19.6"/>
<text text-anchor="middle" x="637" y="-361" font-family="Helvetica,sans-Serif" font-size="10.00" fill="#ffffff">next_action.</text>
<text text-anchor="middle" x="637" y="-351" font-family="Helvetica,sans-Serif" font-size="10.00" fill="#ffffff">todotxt</text>
</g>
<!-- next_action_pick_action -->
<g id="node2" class="node"><title>next_action_pick_action</title>
<ellipse fill="#b03a3a" stroke="black" cx="657" cy="-179" rx="49.1678" ry="19.6"/>
<text text-anchor="middle" x="657" y="-181" font-family="Helvetica,sans-Serif" font-size="10.00" fill="#ffffff">next_action.</text>
<text text-anchor="middle" x="657" y="-171" font-family="Helvetica,sans-Serif" font-size="10.00" fill="#ffffff">pick_action</text>
</g>
<!-- next_action_todotxt&#45;&gt;next_action_pick_action -->
<g id="edge1" class="edge"><title>next_action_todotxt&#45;&gt;next_action_pick_action</title>
<path fill="none" stroke="black" d="M580,-268C572.043,-240.564 596.099,-216.701 619.379,-200.772"/>
<polygon fill="black" stroke="black" points="621.375,-203.65 627.859,-195.271 617.565,-197.777 621.375,-203.65"/>
</g>
<!-- next_action_cli -->
<g id="node5" class="node"><title>next_action_cli</title>
<ellipse fill="#8f3d3d" stroke="black" cx="541" cy="-20" rx="49.1678" ry="19.6"/>
<text text-anchor="middle" x="541" y="-22" font-family="Helvetica,sans-Serif" font-size="10.00" fill="#ffffff">next_action.</text>
<text text-anchor="middle" x="541" y="-12" font-family="Helvetica,sans-Serif" font-size="10.00" fill="#ffffff">cli</text>
</g>
<!-- next_action_todotxt&#45;&gt;next_action_cli -->
<g id="edge6" class="edge"><title>next_action_todotxt&#45;&gt;next_action_cli</title>
<path fill="none" stroke="black" d="M660.081,-341.446C696.638,-313.204 764.509,-251.751 772,-180"/>
<path fill="none" stroke="black" d="M772,-178C776.023,-142.225 783.445,-131.132 772,-97"/>
</g>
<!-- next_action_output -->
<g id="node6" class="node"><title>next_action_output</title>
<ellipse fill="#a13535" stroke="black" cx="541" cy="-96" rx="49.1678" ry="19.6"/>
<text text-anchor="middle" x="541" y="-98" font-family="Helvetica,sans-Serif" font-size="10.00" fill="#ffffff">next_action.</text>
<text text-anchor="middle" x="541" y="-88" font-family="Helvetica,sans-Serif" font-size="10.00" fill="#ffffff">output</text>
</g>
<!-- next_action_todotxt&#45;&gt;next_action_output -->
<g id="edge11" class="edge"><title>next_action_todotxt&#45;&gt;next_action_output</title>
<path fill="none" stroke="black" d="M580,-268C565.448,-217.825 574.206,-202.546 561,-152 558.674,-143.097 555.491,-133.611 552.348,-125.067"/>
<polygon fill="black" stroke="black" points="555.559,-123.663 548.731,-115.562 549.016,-126.153 555.559,-123.663"/>
</g>
<!-- next_action_output_reference -->
<g id="node8" class="node"><title>next_action_output_reference</title>
<ellipse fill="#b83d3d" stroke="black" cx="503" cy="-179" rx="49.1678" ry="26.7407"/>
<text text-anchor="middle" x="503" y="-186" font-family="Helvetica,sans-Serif" font-size="10.00" fill="#ffffff">next_action.</text>
<text text-anchor="middle" x="503" y="-176" font-family="Helvetica,sans-Serif" font-size="10.00" fill="#ffffff">output.</text>
<text text-anchor="middle" x="503" y="-166" font-family="Helvetica,sans-Serif" font-size="10.00" fill="#ffffff">reference</text>
</g>
<!-- next_action_todotxt&#45;&gt;next_action_output_reference -->
<g id="edge17" class="edge"><title>next_action_todotxt&#45;&gt;next_action_output_reference</title>
<path fill="none" stroke="black" d="M580,-268C573.135,-244.329 555.463,-223.318 538.779,-207.768"/>
<polygon fill="black" stroke="black" points="541.014,-205.071 531.225,-201.017 536.35,-210.29 541.014,-205.071"/>
<path fill="none" stroke="black" d="M620.783,-340.044C606.849,-323.299 587.808,-296.923 580,-270"/>
</g>
<!-- next_action_pick_action&#45;&gt;next_action_cli -->
<g id="edge5" class="edge"><title>next_action_pick_action&#45;&gt;next_action_cli</title>
<path fill="none" stroke="black" d="M772,-95C760.578,-60.9381 661.768,-39.4085 597.131,-28.8365"/>
<polygon fill="black" stroke="black" points="597.496,-25.3505 587.069,-27.2336 596.394,-32.2634 597.496,-25.3505"/>
<path fill="none" stroke="black" d="M698.274,-168.108C736.094,-156.565 784.461,-134.161 772,-97"/>
</g>
<!-- next_action_todotxt_Tasks -->
<g id="node3" class="node"><title>next_action_todotxt_Tasks</title>
<ellipse fill="#cc3333" stroke="black" cx="754" cy="-359" rx="49.1678" ry="26.7407"/>
<text text-anchor="middle" x="754" y="-366" font-family="Helvetica,sans-Serif" font-size="10.00" fill="#ffffff">next_action.</text>
<text text-anchor="middle" x="754" y="-356" font-family="Helvetica,sans-Serif" font-size="10.00" fill="#ffffff">todotxt.</text>
<text text-anchor="middle" x="754" y="-346" font-family="Helvetica,sans-Serif" font-size="10.00" fill="#ffffff">Tasks</text>
</g>
<!-- next_action_todotxt_Tasks&#45;&gt;next_action_pick_action -->
<g id="edge2" class="edge"><title>next_action_todotxt_Tasks&#45;&gt;next_action_pick_action</title>
<path fill="none" stroke="black" d="M740.308,-332.874C722.264,-299.763 690.635,-241.722 671.973,-207.477"/>
<polygon fill="black" stroke="black" points="674.934,-205.595 667.076,-198.489 668.787,-208.945 674.934,-205.595"/>
</g>
<!-- next_action_todotxt_Tasks&#45;&gt;next_action_cli -->
<g id="edge4" class="edge"><title>next_action_todotxt_Tasks&#45;&gt;next_action_cli</title>
<path fill="none" stroke="black" d="M772,-268C771.688,-228.89 767.63,-218.866 772,-180"/>
</g>
<!-- next_action_todotxt_Tasks&#45;&gt;next_action_output -->
<g id="edge9" class="edge"><title>next_action_todotxt_Tasks&#45;&gt;next_action_output</title>
<path fill="none" stroke="black" d="M762.126,-332.482C766.951,-315.064 772.114,-291.364 772,-270"/>
<path fill="none" stroke="black" d="M772,-268C771.847,-239.279 736.779,-170.724 715,-152 682.391,-123.965 635.443,-110.197 598.531,-103.448"/>
<polygon fill="black" stroke="black" points="598.852,-99.9527 588.406,-101.725 597.677,-106.853 598.852,-99.9527"/>
</g>
<!-- next_action_todotxt_Task -->
<g id="node4" class="node"><title>next_action_todotxt_Task</title>
<ellipse fill="#ce3b3b" stroke="black" cx="503" cy="-359" rx="49.1678" ry="26.7407"/>
<text text-anchor="middle" x="503" y="-366" font-family="Helvetica,sans-Serif" font-size="10.00" fill="#ffffff">next_action.</text>
<text text-anchor="middle" x="503" y="-356" font-family="Helvetica,sans-Serif" font-size="10.00" fill="#ffffff">todotxt.</text>
<text text-anchor="middle" x="503" y="-346" font-family="Helvetica,sans-Serif" font-size="10.00" fill="#ffffff">Task</text>
</g>
<!-- next_action_todotxt_Task&#45;&gt;next_action_pick_action -->
<g id="edge3" class="edge"><title>next_action_todotxt_Task&#45;&gt;next_action_pick_action</title>
<path fill="none" stroke="black" d="M503,-268C506.476,-243.139 567.986,-214.252 612.201,-196.55"/>
<polygon fill="black" stroke="black" points="613.602,-199.76 621.625,-192.84 611.038,-193.247 613.602,-199.76"/>
</g>
<!-- next_action_todotxt_Task&#45;&gt;next_action_output -->
<g id="edge12" class="edge"><title>next_action_todotxt_Task&#45;&gt;next_action_output</title>
<path fill="none" stroke="black" d="M501.121,-332.07C500.306,-314.474 500.102,-290.729 503,-270"/>
<path fill="none" stroke="black" d="M503,-268C510.196,-216.531 412.103,-230.077 426,-180"/>
</g>
<!-- next_action_todotxt_Task&#45;&gt;next_action_output_reference -->
<g id="edge18" class="edge"><title>next_action_todotxt_Task&#45;&gt;next_action_output_reference</title>
<path fill="none" stroke="black" d="M503,-268C505.377,-250.996 505.667,-231.962 505.245,-215.958"/>
<polygon fill="black" stroke="black" points="508.741,-215.795 504.879,-205.93 501.746,-216.051 508.741,-215.795"/>
</g>
<!-- next_action_output&#45;&gt;next_action_cli -->
<g id="edge7" class="edge"><title>next_action_output&#45;&gt;next_action_cli</title>
<path fill="none" stroke="black" d="M541,-75.9432C541,-68.0884 541,-58.8101 541,-50.1363"/>
<polygon fill="black" stroke="black" points="544.5,-49.9922 541,-39.9923 537.5,-49.9923 544.5,-49.9922"/>
</g>
<!-- next_action_arguments -->
<g id="node7" class="node"><title>next_action_arguments</title>
<ellipse fill="#c04040" stroke="black" cx="355" cy="-96" rx="49.1678" ry="19.6"/>
<text text-anchor="middle" x="355" y="-98" font-family="Helvetica,sans-Serif" font-size="10.00" fill="#ffffff">next_action.</text>
<text text-anchor="middle" x="355" y="-88" font-family="Helvetica,sans-Serif" font-size="10.00" fill="#ffffff">arguments</text>
</g>
<!-- next_action_arguments&#45;&gt;next_action_cli -->
<g id="edge8" class="edge"><title>next_action_arguments&#45;&gt;next_action_cli</title>
<path fill="none" stroke="black" d="M389.115,-81.4273C419.66,-69.2749 464.603,-51.3947 497.678,-38.2355"/>
<polygon fill="black" stroke="black" points="499.103,-41.4355 507.101,-34.4867 496.516,-34.9314 499.103,-41.4355"/>
</g>
<!-- next_action_output_reference&#45;&gt;next_action_output -->
<g id="edge10" class="edge"><title>next_action_output_reference&#45;&gt;next_action_output</title>
<path fill="none" stroke="black" d="M514.815,-152.815C518.943,-144.016 523.602,-134.086 527.833,-125.067"/>
<polygon fill="black" stroke="black" points="531.133,-126.274 532.211,-115.734 524.795,-123.301 531.133,-126.274"/>
</g>
<!-- next_action_output_color -->
<g id="node9" class="node"><title>next_action_output_color</title>
<ellipse fill="#b03a3a" stroke="black" cx="426" cy="-269" rx="49.1678" ry="26.7407"/>
<text text-anchor="middle" x="426" y="-276" font-family="Helvetica,sans-Serif" font-size="10.00" fill="#ffffff">next_action.</text>
<text text-anchor="middle" x="426" y="-266" font-family="Helvetica,sans-Serif" font-size="10.00" fill="#ffffff">output.</text>
<text text-anchor="middle" x="426" y="-256" font-family="Helvetica,sans-Serif" font-size="10.00" fill="#ffffff">color</text>
</g>
<!-- next_action_output_color&#45;&gt;next_action_output -->
<g id="edge13" class="edge"><title>next_action_output_color&#45;&gt;next_action_output</title>
<path fill="none" stroke="black" d="M426,-178C434.83,-146.182 466.415,-125.378 494.253,-112.83"/>
<polygon fill="black" stroke="black" points="495.683,-116.026 503.512,-108.887 492.941,-109.585 495.683,-116.026"/>
<path fill="none" stroke="black" d="M422.406,-242.095C420.803,-224.3 420.362,-200.316 426,-180"/>
</g>
<!-- pygments -->
<g id="node10" class="node"><title>pygments</title>
<ellipse fill="#c8f906" stroke="black" cx="34" cy="-539" rx="33.905" ry="18"/>
<text text-anchor="middle" x="34" y="-536" font-family="Helvetica,sans-Serif" font-size="10.00" fill="#000000">pygments</text>
</g>
<!-- pygments&#45;&gt;next_action_output_color -->
<g id="edge14" class="edge"><title>pygments&#45;&gt;next_action_output_color</title>
<path fill="none" stroke="black" d="M426,-448C445.047,-401.773 440.019,-342.881 433.739,-305.796"/>
<polygon fill="black" stroke="black" points="437.18,-305.158 431.953,-295.943 430.293,-306.407 437.18,-305.158"/>
<path fill="none" stroke="black" d="M57.781,-526.004C68.838,-520.915 82.3212,-515.389 95,-512 167.297,-492.677 392.605,-516.97 426,-450"/>
</g>
<!-- pygments&#45;&gt;pygments -->
<g id="edge32" class="edge"><title>pygments&#45;&gt;pygments</title>
<path fill="none" stroke="black" d="M54.0118,-553.6C69.8003,-559.247 86,-554.381 86,-539 86,-526.864 75.9137,-521.273 63.9019,-522.23"/>
<polygon fill="black" stroke="black" points="63.0291,-518.838 54.0118,-524.4 64.5297,-525.675 63.0291,-518.838"/>
</g>
<!-- next_action_arguments_parser -->
<g id="node15" class="node"><title>next_action_arguments_parser</title>
<ellipse fill="#a13535" stroke="black" cx="247" cy="-179" rx="49.1678" ry="26.7407"/>
<text text-anchor="middle" x="247" y="-186" font-family="Helvetica,sans-Serif" font-size="10.00" fill="#ffffff">next_action.</text>
<text text-anchor="middle" x="247" y="-176" font-family="Helvetica,sans-Serif" font-size="10.00" fill="#ffffff">arguments.</text>
<text text-anchor="middle" x="247" y="-166" font-family="Helvetica,sans-Serif" font-size="10.00" fill="#ffffff">parser</text>
</g>
<!-- pygments&#45;&gt;next_action_arguments_parser -->
<g id="edge29" class="edge"><title>pygments&#45;&gt;next_action_arguments_parser</title>
<path fill="none" stroke="black" d="M170,-358C169.855,-305.684 124.871,-287.886 150,-242 160.395,-223.019 179.35,-209.002 197.765,-199.147"/>
<polygon fill="black" stroke="black" points="199.362,-202.261 206.721,-194.639 196.215,-196.008 199.362,-202.261"/>
<path fill="none" stroke="black" d="M54.3777,-524.384C91.5576,-497.755 166.889,-434.799 170,-360"/>
</g>
<!-- next_action_arguments_config -->
<g id="node16" class="node"><title>next_action_arguments_config</title>
<ellipse fill="#a83838" stroke="black" cx="208" cy="-269" rx="49.1678" ry="26.7407"/>
<text text-anchor="middle" x="208" y="-276" font-family="Helvetica,sans-Serif" font-size="10.00" fill="#ffffff">next_action.</text>
<text text-anchor="middle" x="208" y="-266" font-family="Helvetica,sans-Serif" font-size="10.00" fill="#ffffff">arguments.</text>
<text text-anchor="middle" x="208" y="-256" font-family="Helvetica,sans-Serif" font-size="10.00" fill="#ffffff">config</text>
</g>
<!-- pygments&#45;&gt;next_action_arguments_config -->
<g id="edge23" class="edge"><title>pygments&#45;&gt;next_action_arguments_config</title>
<path fill="none" stroke="black" d="M170,-358C169.947,-338.942 177.546,-319.324 185.962,-303.461"/>
<polygon fill="black" stroke="black" points="189.102,-305.019 190.96,-294.588 183.003,-301.584 189.102,-305.019"/>
</g>
<!-- pygments_lexers -->
<g id="node11" class="node"><title>pygments_lexers</title>
<ellipse fill="#9fb83d" stroke="black" cx="426" cy="-539" rx="43.4026" ry="19.6"/>
<text text-anchor="middle" x="426" y="-541" font-family="Helvetica,sans-Serif" font-size="10.00" fill="#000000">pygments.</text>
<text text-anchor="middle" x="426" y="-531" font-family="Helvetica,sans-Serif" font-size="10.00" fill="#000000">lexers</text>
</g>
<!-- pygments_lexers&#45;&gt;next_action_output_color -->
<g id="edge15" class="edge"><title>pygments_lexers&#45;&gt;next_action_output_color</title>
<path fill="none" stroke="black" d="M421.957,-518.998C418.959,-500.609 416.804,-472.319 426,-450"/>
</g>
<!-- pygments_lexers&#45;&gt;pygments_lexers -->
<g id="edge33" class="edge"><title>pygments_lexers&#45;&gt;pygments_lexers</title>
<path fill="none" stroke="black" d="M452.969,-554.54C470.31,-558.594 487,-553.414 487,-539 487,-527.401 476.193,-521.782 462.936,-522.141"/>
<polygon fill="black" stroke="black" points="462.423,-518.678 452.969,-523.46 463.342,-525.618 462.423,-518.678"/>
</g>
<!-- pygments_formatters -->
<g id="node12" class="node"><title>pygments_formatters</title>
<ellipse fill="#9fb83d" stroke="black" cx="550" cy="-539" rx="43.4026" ry="19.6"/>
<text text-anchor="middle" x="550" y="-541" font-family="Helvetica,sans-Serif" font-size="10.00" fill="#000000">pygments.</text>
<text text-anchor="middle" x="550" y="-531" font-family="Helvetica,sans-Serif" font-size="10.00" fill="#000000">formatters</text>
</g>
<!-- pygments_formatters&#45;&gt;next_action_output_color -->
<g id="edge16" class="edge"><title>pygments_formatters&#45;&gt;next_action_output_color</title>
<path fill="none" stroke="black" d="M523.76,-522.976C486.028,-500.898 421.424,-461.105 426,-450"/>
</g>
<!-- pygments_formatters&#45;&gt;pygments_formatters -->
<g id="edge34" class="edge"><title>pygments_formatters&#45;&gt;pygments_formatters</title>
<path fill="none" stroke="black" d="M576.969,-554.54C594.31,-558.594 611,-553.414 611,-539 611,-527.401 600.193,-521.782 586.936,-522.141"/>
<polygon fill="black" stroke="black" points="586.423,-518.678 576.969,-523.46 587.342,-525.618 586.423,-518.678"/>
</g>
<!-- next_action_todotxt_tasks -->
<g id="node13" class="node"><title>next_action_todotxt_tasks</title>
<ellipse fill="#c04040" stroke="black" cx="657" cy="-449" rx="49.1678" ry="26.7407"/>
<text text-anchor="middle" x="657" y="-456" font-family="Helvetica,sans-Serif" font-size="10.00" fill="#ffffff">next_action.</text>
<text text-anchor="middle" x="657" y="-446" font-family="Helvetica,sans-Serif" font-size="10.00" fill="#ffffff">todotxt.</text>
<text text-anchor="middle" x="657" y="-436" font-family="Helvetica,sans-Serif" font-size="10.00" fill="#ffffff">tasks</text>
</g>
<!-- next_action_todotxt_tasks&#45;&gt;next_action_todotxt -->
<g id="edge19" class="edge"><title>next_action_todotxt_tasks&#45;&gt;next_action_todotxt</title>
<path fill="none" stroke="black" d="M651.108,-422.073C648.715,-411.546 645.943,-399.348 643.492,-388.566"/>
<polygon fill="black" stroke="black" points="646.894,-387.739 641.264,-378.764 640.068,-389.291 646.894,-387.739"/>
</g>
<!-- next_action_todotxt_task -->
<g id="node14" class="node"><title>next_action_todotxt_task</title>
<ellipse fill="#db2f2f" stroke="black" cx="703" cy="-539" rx="49.1678" ry="26.7407"/>
<text text-anchor="middle" x="703" y="-546" font-family="Helvetica,sans-Serif" font-size="10.00" fill="#ffffff">next_action.</text>
<text text-anchor="middle" x="703" y="-536" font-family="Helvetica,sans-Serif" font-size="10.00" fill="#ffffff">todotxt.</text>
<text text-anchor="middle" x="703" y="-526" font-family="Helvetica,sans-Serif" font-size="10.00" fill="#ffffff">task</text>
</g>
<!-- next_action_todotxt_task&#45;&gt;next_action_todotxt -->
<g id="edge20" class="edge"><title>next_action_todotxt_task&#45;&gt;next_action_todotxt</title>
<path fill="none" stroke="black" d="M721.598,-513.963C732.802,-497.002 744.777,-473.246 744,-450"/>
<path fill="none" stroke="black" d="M744,-448C743.373,-429.239 703.731,-400.64 672.884,-381.175"/>
<polygon fill="black" stroke="black" points="674.395,-377.994 664.052,-375.696 670.705,-383.942 674.395,-377.994"/>
</g>
<!-- next_action_todotxt_task&#45;&gt;next_action_todotxt_Tasks -->
<g id="edge31" class="edge"><title>next_action_todotxt_task&#45;&gt;next_action_todotxt_Tasks</title>
<path fill="none" stroke="black" d="M744,-448C743.427,-430.856 745.253,-411.942 747.495,-396.056"/>
<polygon fill="black" stroke="black" points="750.965,-396.516 749.008,-386.104 744.045,-395.464 750.965,-396.516"/>
</g>
<!-- next_action_todotxt_task&#45;&gt;next_action_todotxt_tasks -->
<g id="edge21" class="edge"><title>next_action_todotxt_task&#45;&gt;next_action_todotxt_tasks</title>
<path fill="none" stroke="black" d="M689.941,-513.018C685.231,-504.007 679.832,-493.679 674.787,-484.027"/>
<polygon fill="black" stroke="black" points="677.826,-482.285 670.091,-475.044 671.622,-485.528 677.826,-482.285"/>
</g>
<!-- next_action_arguments_parser&#45;&gt;next_action_arguments -->
<g id="edge22" class="edge"><title>next_action_arguments_parser&#45;&gt;next_action_arguments</title>
<path fill="none" stroke="black" d="M275.094,-156.93C290.176,-145.618 308.791,-131.657 324.259,-120.056"/>
<polygon fill="black" stroke="black" points="326.586,-122.686 332.486,-113.886 322.386,-117.086 326.586,-122.686"/>
</g>
<!-- next_action_arguments_config&#45;&gt;next_action_arguments_parser -->
<g id="edge28" class="edge"><title>next_action_arguments_config&#45;&gt;next_action_arguments_parser</title>
<path fill="none" stroke="black" d="M219.28,-242.547C223.121,-233.882 227.481,-224.042 231.589,-214.774"/>
<polygon fill="black" stroke="black" points="234.893,-215.957 235.745,-205.396 228.493,-213.12 234.893,-215.957"/>
</g>
<!-- yaml -->
<g id="node17" class="node"><title>yaml</title>
<ellipse fill="#537bb6" stroke="black" cx="131" cy="-539" rx="27" ry="18"/>
<text text-anchor="middle" x="131" y="-536" font-family="Helvetica,sans-Serif" font-size="10.00" fill="#ffffff">yaml</text>
</g>
<!-- yaml&#45;&gt;next_action_arguments_config -->
<g id="edge24" class="edge"><title>yaml&#45;&gt;next_action_arguments_config</title>
<path fill="none" stroke="black" d="M208,-448C217.909,-399.643 215.452,-342.332 212.204,-306.068"/>
<polygon fill="black" stroke="black" points="215.674,-305.59 211.23,-295.972 208.706,-306.262 215.674,-305.59"/>
<path fill="none" stroke="black" d="M149.516,-525.425C169.608,-510.34 199.911,-482.923 208,-450"/>
</g>
<!-- cerberus -->
<g id="node18" class="node"><title>cerberus</title>
<ellipse fill="#a640c0" stroke="black" cx="208" cy="-539" rx="31.5493" ry="18"/>
<text text-anchor="middle" x="208" y="-536" font-family="Helvetica,sans-Serif" font-size="10.00" fill="#ffffff">cerberus</text>
</g>
<!-- cerberus&#45;&gt;next_action_arguments_config -->
<g id="edge25" class="edge"><title>cerberus&#45;&gt;next_action_arguments_config</title>
<path fill="none" stroke="black" d="M205.99,-520.926C204.351,-503.046 203.032,-474.246 208,-450"/>
</g>
<!-- cerberus&#45;&gt;cerberus -->
<g id="edge35" class="edge"><title>cerberus&#45;&gt;cerberus</title>
<path fill="none" stroke="black" d="M226.602,-553.502C241.56,-559.303 257,-554.469 257,-539 257,-527.036 247.764,-521.434 236.658,-522.193"/>
<polygon fill="black" stroke="black" points="235.567,-518.852 226.602,-524.498 237.132,-525.675 235.567,-518.852"/>
</g>
<!-- pygments_styles -->
<g id="node19" class="node"><title>pygments_styles</title>
<ellipse fill="#a6c040" stroke="black" cx="320" cy="-539" rx="43.4026" ry="19.6"/>
<text text-anchor="middle" x="320" y="-541" font-family="Helvetica,sans-Serif" font-size="10.00" fill="#000000">pygments.</text>
<text text-anchor="middle" x="320" y="-531" font-family="Helvetica,sans-Serif" font-size="10.00" fill="#000000">styles</text>
</g>
<!-- pygments_styles&#45;&gt;next_action_arguments_parser -->
<g id="edge30" class="edge"><title>pygments_styles&#45;&gt;next_action_arguments_parser</title>
<path fill="none" stroke="black" d="M285,-358C274.015,-320.463 296.099,-307.503 285,-270"/>
<path fill="none" stroke="black" d="M285,-268C279.642,-249.896 271.57,-230.555 264.242,-214.629"/>
<polygon fill="black" stroke="black" points="267.228,-212.756 259.806,-205.196 260.894,-215.734 267.228,-212.756"/>
</g>
<!-- pygments_styles&#45;&gt;next_action_arguments_config -->
<g id="edge26" class="edge"><title>pygments_styles&#45;&gt;next_action_arguments_config</title>
<path fill="none" stroke="black" d="M285,-358C280.053,-333.855 262.48,-312.82 245.37,-297.375"/>
<polygon fill="black" stroke="black" points="247.451,-294.549 237.588,-290.681 242.886,-299.855 247.451,-294.549"/>
<path fill="none" stroke="black" d="M314.653,-519.11C311.308,-506.881 307.068,-490.577 304,-476 293.24,-424.878 295.487,-411.179 285,-360"/>
</g>
<!-- dateparser -->
<g id="node20" class="node"><title>dateparser</title>
<ellipse fill="#53b67b" stroke="black" cx="350" cy="-449" rx="36.2615" ry="18"/>
<text text-anchor="middle" x="350" y="-446" font-family="Helvetica,sans-Serif" font-size="10.00" fill="#000000">dateparser</text>
</g>
<!-- dateparser&#45;&gt;next_action_arguments_parser -->
<g id="edge27" class="edge"><title>dateparser&#45;&gt;next_action_arguments_parser</title>
<path fill="none" stroke="black" d="M343.192,-430.998C330.728,-399.533 303.797,-329.959 285,-270"/>
</g>
</g>
</svg>
